<?xml version="1.0"?>
<svg xmlns="http://www.w3.org/2000/svg" id="Layer_1" data-name="Layer 1" viewBox="0 0 512 512" width="512" height="512"><title>Game Monitor</title><path d="M490,39.742A7.519,7.519,0,0,0,482.316,32H29.683A7.518,7.518,0,0,0,22,39.742V400.93A7.8,7.8,0,0,0,29.683,409H185.448l-15.513,55H142.467a8,8,0,1,0,0,16H369.533a8,8,0,0,0,0-16H342.065l-15.513-55H482.316A7.8,7.8,0,0,0,490,400.93v-67h0v-16h0ZM38,48H474V318H38ZM325.448,464h-138.9l15.513-55h107.87ZM474,393H38V334H474Z"/><path d="M361.454,187.127a59.3,59.3,0,0,0-39.2-21.528L308.787,147.56c-.112-.151-.23-.365-.353-.508A29.028,29.028,0,0,0,286.5,137H264V123.577A35.711,35.711,0,0,0,228.036,88H206.043a8,8,0,0,0,0,16h21.993A19.694,19.694,0,0,1,248,123.577V137H225.312a28.816,28.816,0,0,0-21.8,10.053c-.123.143-.241.323-.354.473L189.678,165.6a59.643,59.643,0,0,0-52.526,59.2A59.309,59.309,0,0,0,196.707,284h.064a59.584,59.584,0,0,0,43.517-19h31.363a57.522,57.522,0,0,0,37.576,18.857,60.6,60.6,0,0,0,6.156.4,59.513,59.513,0,0,0,46.071-97.13ZM225.362,153H286.63a12.757,12.757,0,0,1,9.526,4.226L301.979,165H209.964l5.824-7.775A12.784,12.784,0,0,1,225.362,153ZM342.8,258.54a43.391,43.391,0,0,1-61.305-6.423,8.17,8.17,0,0,0-6.2-3.117H236.653a8.022,8.022,0,0,0-6.2,2.962A43.373,43.373,0,0,1,196.754,268h-.047a43.3,43.3,0,0,1-43.555-43.38,43.6,43.6,0,0,1,43.5-43.62h118.63A43.7,43.7,0,0,1,342.8,258.54Z"/><path d="M209.863,216H202v-7.7a8,8,0,1,0-16,0V216h-8.1a8,8,0,0,0,0,16H186v8.263a8,8,0,1,0,16,0V232h7.863a8,8,0,0,0,0-16Z"/><path d="M315.057,185.3a14.72,14.72,0,0,0-14.7,14.7,8,8,0,0,0,14.7,4.367,8,8,0,0,0,14.7-4.367A14.721,14.721,0,0,0,315.057,185.3Z"/><path d="M321.762,238.245a7.99,7.99,0,0,0-6.7,3.633,8,8,0,0,0-14.7,4.367,14.7,14.7,0,0,0,29.409,0A8,8,0,0,0,321.762,238.245Z"/><path d="M338.177,208.42a8,8,0,0,0-4.366,14.705,8,8,0,0,0,4.366,14.705,14.705,14.705,0,0,0,0-29.41Z"/><path d="M299.938,216.42a8,8,0,0,0-8-8,14.705,14.705,0,1,0,0,29.41,8,8,0,0,0,4.366-14.705A8,8,0,0,0,299.938,216.42Z"/></svg>
