<svg height="512pt" viewBox="-83 0 512 512" width="512pt" xmlns="http://www.w3.org/2000/svg"><path d="m238.648438 371.78125 13.054687-13.058594-21.214844-21.210937-13.054687 13.054687c-8.667969-5.875-18.570313-10.0625-29.21875-12.121094v-18.445312h-30v18.445312c-10.648438 2.058594-20.550782 6.242188-29.21875 12.121094l-13.054688-13.054687-21.214844 21.210937 13.054688 13.058594c-5.875 8.667969-10.0625 18.570312-12.121094 29.21875h-18.445312v30h18.445312c2.058594 10.648438 6.242188 20.550781 12.121094 29.21875l-13.054688 13.058594 21.210938 21.210937 13.058594-13.054687c8.667968 5.878906 18.566406 10.0625 29.21875 12.121094v18.445312h30v-18.445312c10.648437-2.058594 20.546875-6.242188 29.21875-12.121094l13.054687 13.054687 21.214844-21.210937-13.058594-13.058594c5.878907-8.667969 10.066407-18.570312 12.121094-29.21875h18.449219v-30h-18.449219c-2.054687-10.648438-6.242187-20.550781-12.117187-29.21875zm-114.433594 44.21875c0-27.019531 21.980468-49 49-49 27.019531 0 49 21.980469 49 49s-21.980469 49-49 49c-27.019532 0-49-21.980469-49-49zm0 0"/><path d="m158.214844 401h30v30h-30zm0 0"/><path d="m299.238281 188.671875c30.429688-39.726563 47.191407-89.160156 47.191407-139.203125v-49.46875h-30v34.332031h-286.429688v-34.332031h-30v49.46875c0 50.042969 16.761719 99.476562 47.191406 139.203125 21.964844 28.675781 50.675782 51.789063 83.117188 67.328125-32.441406 15.542969-61.152344 38.652344-83.117188 67.328125-30.429687 39.726563-47.191406 89.160156-47.191406 139.203125v49.46875h30v-49.46875c0-88.359375 58.6875-166.300781 143.214844-190.953125 84.527344 24.652344 143.214844 102.59375 143.214844 190.953125v49.46875h30v-49.46875c0-50.042969-16.761719-99.476562-47.191407-139.203125-21.964843-28.675781-50.675781-51.789063-83.117187-67.328125 32.441406-15.539062 61.148437-38.652344 83.117187-67.328125zm-268.671875-124.335937h285.292969c-.972656 13-3.207031 25.714843-6.605469 38h-272.078125c-3.402343-12.285157-5.636719-25-6.609375-38zm17.582032 67.996093h250.128906c-6.210938 13.507813-13.898438 26.253907-22.894532 38h-204.339843c-8.992188-11.746093-16.683594-24.492187-22.894531-38zm198.898437 68c-21.039063 18.109375-46.035156 31.980469-73.832031 40.089844-27.796875-8.109375-52.792969-21.980469-73.832032-40.089844zm0 0"/></svg>