<?xml version="1.0" encoding="iso-8859-1"?>
<!-- Generator: Adobe Illustrator 19.0.0, SVG Export Plug-In . SVG Version: 6.00 Build 0)  -->
<svg xmlns="http://www.w3.org/2000/svg" xmlns:xlink="http://www.w3.org/1999/xlink" version="1.1" id="Layer_1" x="0px" y="0px" viewBox="0 0 512 512" style="enable-background:new 0 0 512 512;" xml:space="preserve" width="512" height="512">
<g>
	<path d="M302,46v60H0v270h152v60h-30v30h150v-30h-30v-60h60v90h210V46H302z M332,76h150v30c-23.567,0-114.755,0-150,0V76z M362,136   v150H30V136H362z M30,316h332v30H30V316z M212,436h-30v-60h30V436z M332,436v-60h60V136h90v300H332z"/>
	<rect x="422" y="166" width="30" height="30"/>
	<rect x="422" y="226" width="30" height="30"/>
</g>















</svg>
